<svg width="241" height="328" viewBox="0 0 241 328" fill="none" xmlns="http://www.w3.org/2000/svg">
<path d="M181.525 75.141C181.405 74.9217 181.306 74.8021 181.086 74.5828C170.241 62.4017 154.85 45.1368 143.766 32.836C140.337 29.1877 136.907 25.5194 133.698 21.7713C132.92 20.8941 132.262 19.997 131.485 19.1198C130.827 18.4619 130.488 18.0034 130.488 18.0034H130.608C126.84 13.5775 123.849 8.59338 121.756 3.27037L121.198 2.05425C121.198 1.93463 121.078 1.93463 120.978 1.83495C120.859 1.83495 120.639 1.71533 120.54 1.71533H120.4C120.181 1.71533 120.061 1.83495 119.962 1.83495C119.842 1.95457 119.842 1.95457 119.742 2.05425L119.184 3.27037C116.971 8.59338 113.981 13.5575 110.332 18.0034H110.452C110.452 18.0034 110.113 18.442 109.455 19.1198C108.678 19.997 108.02 20.8941 107.242 21.7713C103.913 25.5393 100.603 29.1877 97.1742 32.836C86.1096 45.1168 70.599 62.4017 59.7537 74.5828C59.634 74.8021 59.5344 74.9217 59.3151 75.141C18.3258 129.727 62.8239 174.245 62.8239 174.245H62.7042C75.8822 189.516 94.5825 198.926 114.639 200.381C116.413 200.601 118.287 200.72 120.281 200.72H120.4C122.274 200.72 124.168 200.601 126.042 200.381C146.198 198.946 164.798 189.536 177.976 174.245H177.857C177.976 174.245 222.494 129.727 181.525 75.141ZM86.1893 113.558L85.1925 115.113L85.0729 115.233C77.5369 124.304 73.111 134.053 71.6756 143.682C71.4563 144.898 70.3399 145.676 69.2434 145.457C68.4659 145.337 67.9076 144.799 67.5887 144.121C65.595 139.476 64.2593 134.591 63.6014 129.607C61.0495 112.003 66.3725 96.6325 77.6565 83.4545C82.202 78.2511 86.7276 73.0477 91.2731 67.8443C92.0506 66.9671 93.3863 66.8475 94.2635 67.625C94.3832 67.7446 94.3832 67.7446 94.4828 67.8443C98.1312 72.0509 102.896 77.4736 108.219 83.6738C108.877 84.4513 108.877 85.6674 108.219 86.5446C100.902 95.2967 93.167 104.587 86.1893 113.459V113.558ZM149.069 159.173C144.862 170.238 136.549 176.896 124.826 178.77C108.099 181.322 92.4892 169.919 89.9573 153.192C89.9573 152.973 89.9573 152.853 89.8377 152.634C88.5019 143.224 91.3927 134.91 97.4733 127.833C104.551 119.519 120.181 100.261 120.4 99.922C120.739 100.261 137.346 120.955 143.546 128.271C151.401 137.482 153.295 147.989 149.069 159.173ZM173.77 141.788C173.65 142.127 173.431 142.566 173.331 142.905C172.893 144.021 171.677 144.56 170.56 144.121C169.902 143.782 169.344 143.244 169.224 142.466C167.669 133.156 163.243 123.866 156.046 115.113L155.927 114.994L155.269 113.997L154.83 113.439C149.069 106.122 118.626 70.4759 105.328 54.8657C104.67 54.0882 104.67 52.8721 105.328 51.9949C109.754 47.1304 114.18 42.246 118.506 37.2619C119.284 36.3847 120.619 36.3847 121.497 37.1423L121.616 37.2619C123.61 39.3752 125.484 41.4685 127.378 43.6814C139.439 57.1983 151.621 70.4759 163.363 84.0925C178.196 101.278 181.625 120.975 173.77 141.788Z" fill="#009CDE"/>
<path d="M74.7779 314.953C71.0659 318.897 66.6965 321.991 61.6699 324.233C56.6432 326.476 51.2299 327.597 45.4299 327.597C39.7845 327.597 34.4485 326.515 29.4219 324.349C24.4725 322.184 20.1419 319.207 16.4299 315.417C12.7179 311.551 9.77921 307.104 7.61388 302.077C5.52588 296.973 4.48188 291.521 4.48188 285.721C4.48188 279.921 5.52588 274.469 7.61388 269.365C9.77921 264.261 12.7179 259.815 16.4299 256.025C20.1419 252.236 24.4725 249.259 29.4219 247.093C34.4485 244.851 39.7845 243.729 45.4299 243.729C51.2299 243.729 56.6432 244.851 61.6699 247.093C66.6965 249.336 71.0659 252.429 74.7779 256.373L65.0339 266.117C62.5592 263.411 59.6205 261.323 56.2179 259.853C52.8925 258.307 49.2965 257.533 45.4299 257.533C41.7179 257.533 38.1992 258.268 34.8739 259.737C31.5485 261.207 28.6485 263.217 26.1739 265.769C23.7765 268.321 21.8432 271.299 20.3739 274.701C18.9819 278.104 18.2859 281.777 18.2859 285.721C18.2859 289.588 18.9819 293.261 20.3739 296.741C21.8432 300.144 23.7765 303.121 26.1739 305.673C28.6485 308.225 31.5485 310.236 34.8739 311.705C38.1992 313.175 41.7179 313.909 45.4299 313.909C49.2965 313.909 52.8925 313.136 56.2179 311.589C59.6205 310.043 62.5592 307.916 65.0339 305.209L74.7779 314.953ZM160.932 326.321L154.9 267.161L150.956 286.765L136.804 326.321H119.172L105.02 286.765L101.192 267.161L95.1603 326.321H81.2403L89.4763 245.005H104.788L127.988 309.965L151.188 245.005H166.5L174.736 326.321H160.932ZM212.402 279.109C215.65 280.115 218.782 281.313 221.798 282.705C224.814 284.02 227.482 285.683 229.802 287.693C232.122 289.627 233.939 291.947 235.254 294.653C236.569 297.283 237.226 300.453 237.226 304.165C237.226 304.32 237.226 304.513 237.226 304.745C237.149 308.457 236.298 311.744 234.674 314.605C233.127 317.467 231.039 319.864 228.41 321.797C225.781 323.731 222.765 325.2 219.362 326.205C215.959 327.211 212.479 327.713 208.922 327.713C205.287 327.713 201.227 327.249 196.742 326.321C192.257 325.393 187.153 323.731 181.43 321.333L186.65 308.689C190.981 310.391 195.002 311.705 198.714 312.633C202.503 313.484 205.945 313.909 209.038 313.909C210.662 313.909 212.325 313.755 214.026 313.445C215.727 313.136 217.274 312.595 218.666 311.821C220.058 311.048 221.179 310.043 222.03 308.805C222.958 307.568 223.422 306.06 223.422 304.281C223.422 302.348 222.919 300.724 221.914 299.409C220.909 298.095 219.633 297.012 218.086 296.161C216.539 295.233 214.877 294.46 213.098 293.841C211.319 293.223 209.734 292.72 208.342 292.333C205.094 291.251 201.962 290.052 198.946 288.737C196.007 287.423 193.378 285.799 191.058 283.865C188.738 281.932 186.882 279.612 185.49 276.905C184.175 274.121 183.518 270.796 183.518 266.929C183.518 263.14 184.33 259.815 185.954 256.953C187.578 254.015 189.705 251.579 192.334 249.645C195.041 247.712 198.095 246.281 201.498 245.353C204.978 244.348 208.535 243.845 212.17 243.845C215.65 243.845 219.555 244.271 223.886 245.121C228.294 245.895 233.243 247.364 238.734 249.529L233.746 262.289C229.57 260.743 225.665 259.583 222.03 258.809C218.395 257.959 215.031 257.533 211.938 257.533C210.314 257.533 208.651 257.688 206.95 257.997C205.249 258.307 203.663 258.848 202.194 259.621C200.802 260.395 199.642 261.4 198.714 262.637C197.786 263.797 197.322 265.305 197.322 267.161C197.322 269.095 197.825 270.719 198.83 272.033C199.835 273.348 201.111 274.469 202.658 275.397C204.205 276.248 205.867 276.983 207.646 277.601C209.425 278.143 211.01 278.645 212.402 279.109Z" fill="#009CDE"/>
</svg>
