<svg width="391" height="431" viewBox="0 0 391 431" fill="none" xmlns="http://www.w3.org/2000/svg">
<path d="M240.623 73.9056C240.512 73.683 240.401 73.5717 240.178 73.3491C229.271 61.1065 213.801 43.7442 202.671 31.3903C199.221 27.7175 195.771 24.0447 192.543 20.2607C191.764 19.3703 191.096 18.4799 190.317 17.5895C189.649 16.9218 189.316 16.4766 189.316 16.4766H189.427C185.643 12.0247 182.638 7.01636 180.523 1.67412L179.967 0.449857C179.967 0.33856 179.855 0.33856 179.744 0.227263C179.633 0.115967 179.41 0.115967 179.299 0.115967H179.188C178.965 0.115967 178.854 0.227263 178.742 0.227263C178.631 0.33856 178.631 0.33856 178.52 0.449857L177.963 1.67412C175.737 7.01636 172.732 12.0247 169.06 16.4766H169.171C169.171 16.4766 168.837 16.9218 168.169 17.5895C167.39 18.4799 166.722 19.3703 165.943 20.2607C162.604 24.0447 159.265 27.7175 155.815 31.3903C144.797 43.7442 129.215 61.1065 118.308 73.3491C118.197 73.5717 118.086 73.683 117.863 73.9056C76.6834 128.775 121.425 173.516 121.425 173.516H121.313C134.558 188.875 153.367 198.335 173.511 199.782C175.292 200.005 177.184 200.116 179.188 200.116H179.299C181.191 200.116 183.083 200.005 184.975 199.782C205.231 198.335 223.929 188.875 237.173 173.516H237.062C237.062 173.516 281.803 128.775 240.623 73.9056ZM144.797 112.526L143.795 114.084L143.684 114.195C136.116 123.321 131.664 133.115 130.217 142.798C129.994 144.022 128.882 144.802 127.769 144.579C126.989 144.468 126.433 143.911 126.099 143.243C124.096 138.569 122.76 133.672 122.092 128.664C119.644 110.967 124.986 95.4972 136.338 82.2529C140.902 77.0219 145.465 71.791 150.028 66.56C150.807 65.6697 152.143 65.5584 153.033 66.3374C153.144 66.4487 153.144 66.4487 153.255 66.56C156.928 70.7893 161.714 76.2428 167.056 82.4755C167.724 83.2545 167.724 84.4788 167.056 85.3692C159.711 94.1616 151.92 103.511 144.908 112.414L144.797 112.526ZM208.013 158.38C203.784 169.509 195.437 176.187 183.639 178.079C166.834 180.639 151.141 169.176 148.581 152.37C148.581 152.147 148.581 152.036 148.47 151.813C147.134 142.353 150.028 134.006 156.149 126.883C163.272 118.536 178.965 99.1699 179.188 98.8361C179.521 99.1699 196.216 119.982 202.449 127.328C210.462 136.566 212.243 147.139 208.013 158.38ZM232.944 140.906C232.833 141.24 232.61 141.685 232.499 142.019C232.053 143.132 230.829 143.689 229.716 143.243C229.048 142.91 228.492 142.353 228.381 141.574C226.822 132.225 222.371 122.876 215.136 114.084L215.025 113.972L214.357 112.971L213.912 112.414C208.125 105.069 177.518 69.2312 164.163 53.6496C163.495 52.8706 163.495 51.6463 164.163 50.7559C168.614 45.8589 173.066 40.9618 177.407 35.9535C178.186 35.0631 179.521 35.0631 180.412 35.8422L180.523 35.9535C182.526 38.0681 184.419 40.1827 186.311 42.4087C198.442 55.9869 210.685 69.3425 222.482 83.0319C237.284 100.172 240.735 119.982 232.944 140.906Z" fill="white"/>
<path d="M354.925 211.353H368.837V214.136H363.273V227.937H360.49V214.136H354.925V211.353Z" fill="white"/>
<path d="M386.2 227.937L384.975 215.917L384.196 219.923L381.303 227.937H377.741L374.847 219.923L374.068 215.917L372.844 227.937H369.95L371.62 211.353H374.736L379.522 224.598L384.308 211.353H387.424L389.093 227.937H386.2Z" fill="white"/>
<path d="M31.163 215.696H0V297.165H31.163C53.645 297.165 71.8976 278.912 71.8976 256.43C71.8976 233.948 53.645 215.807 31.163 215.696ZM50.4174 275.685C45.2977 280.804 38.3973 283.698 31.163 283.587H13.5782V229.163H31.163C46.2994 229.274 58.4307 241.628 58.3194 256.653C58.2081 263.887 55.4257 270.676 50.4174 275.685ZM335.559 297.276H349.137V210.91H335.559V297.276ZM94.8247 241.739V236.731H81.2465V297.276H94.8247V259.88C94.8247 253.314 100.278 250.309 105.398 250.309H113.856V236.731H105.398C101.28 236.731 97.4958 238.623 94.8247 241.739ZM167.279 268.116C167.39 272.791 165.943 277.243 163.161 281.027C160.378 284.477 156.149 286.369 151.697 286.258C148.024 286.369 144.463 285.034 141.681 282.585C138.787 279.803 137.34 275.685 137.34 270.342V237.955H123.762V273.459C123.651 280.248 126.433 286.814 131.441 291.489C136.561 296.274 143.35 298.834 150.25 298.723C156.483 298.834 162.604 296.608 167.167 292.268V297.387H180.746V237.955H167.167L167.279 268.116ZM224.263 236.397C217.362 236.397 210.684 238.845 205.454 243.409V237.844H191.875V324.321H205.454V291.823C210.684 296.386 217.362 298.834 224.263 298.834C241.068 298.834 254.647 284.922 254.647 267.783C254.647 250.309 240.957 236.397 224.263 236.397ZM236.06 280.025C232.944 283.253 228.715 285.145 224.263 285.145C214.691 284.922 207.123 277.132 207.234 267.56C207.234 262.886 209.015 258.434 212.243 254.983C215.359 251.645 219.699 249.864 224.263 249.864C233.5 249.864 241.068 257.766 241.068 267.56C241.068 272.123 239.288 276.686 236.06 280.025ZM310.184 243.409C304.953 238.845 298.275 236.286 291.375 236.397C274.569 236.397 260.991 250.309 260.991 267.449C260.991 284.588 274.569 298.612 291.375 298.612C298.275 298.723 305.064 296.163 310.184 291.6V297.276H323.762V237.732H310.184V243.409ZM291.263 285.145C281.914 285.145 274.346 277.243 274.346 267.449C274.346 257.766 281.914 249.864 291.263 249.864C300.612 249.864 308.18 257.766 308.18 267.449C308.18 277.131 300.612 285.145 291.263 285.145Z" fill="white"/>
<path d="M129.632 417.453C125.92 421.397 121.55 424.491 116.524 426.733C111.497 428.976 106.084 430.097 100.284 430.097C94.6383 430.097 89.3023 429.015 84.2756 426.849C79.3263 424.684 74.9956 421.707 71.2836 417.917C67.5716 414.051 64.633 409.604 62.4676 404.577C60.3796 399.473 59.3356 394.021 59.3356 388.221C59.3356 382.421 60.3796 376.969 62.4676 371.865C64.633 366.761 67.5716 362.315 71.2836 358.525C74.9956 354.736 79.3263 351.759 84.2756 349.593C89.3023 347.351 94.6383 346.229 100.284 346.229C106.084 346.229 111.497 347.351 116.524 349.593C121.55 351.836 125.92 354.929 129.632 358.873L119.888 368.617C117.413 365.911 114.474 363.823 111.072 362.353C107.746 360.807 104.15 360.033 100.284 360.033C96.5716 360.033 93.053 360.768 89.7276 362.237C86.4023 363.707 83.5023 365.717 81.0276 368.269C78.6303 370.821 76.697 373.799 75.2276 377.201C73.8356 380.604 73.1396 384.277 73.1396 388.221C73.1396 392.088 73.8356 395.761 75.2276 399.241C76.697 402.644 78.6303 405.621 81.0276 408.173C83.5023 410.725 86.4023 412.736 89.7276 414.205C93.053 415.675 96.5716 416.409 100.284 416.409C104.15 416.409 107.746 415.636 111.072 414.089C114.474 412.543 117.413 410.416 119.888 407.709L129.632 417.453ZM215.786 428.821L209.754 369.661L205.81 389.265L191.658 428.821H174.026L159.874 389.265L156.046 369.661L150.014 428.821H136.094L144.33 347.505H159.642L182.842 412.465L206.042 347.505H221.354L229.59 428.821H215.786ZM267.256 381.609C270.504 382.615 273.636 383.813 276.652 385.205C279.668 386.52 282.336 388.183 284.656 390.193C286.976 392.127 288.793 394.447 290.108 397.153C291.422 399.783 292.08 402.953 292.08 406.665C292.08 406.82 292.08 407.013 292.08 407.245C292.002 410.957 291.152 414.244 289.528 417.105C287.981 419.967 285.893 422.364 283.264 424.297C280.634 426.231 277.618 427.7 274.216 428.705C270.813 429.711 267.333 430.213 263.776 430.213C260.141 430.213 256.081 429.749 251.596 428.821C247.11 427.893 242.006 426.231 236.284 423.833L241.504 411.189C245.834 412.891 249.856 414.205 253.568 415.133C257.357 415.984 260.798 416.409 263.892 416.409C265.516 416.409 267.178 416.255 268.88 415.945C270.581 415.636 272.128 415.095 273.52 414.321C274.912 413.548 276.033 412.543 276.884 411.305C277.812 410.068 278.276 408.56 278.276 406.781C278.276 404.848 277.773 403.224 276.768 401.909C275.762 400.595 274.486 399.512 272.94 398.661C271.393 397.733 269.73 396.96 267.952 396.341C266.173 395.723 264.588 395.22 263.196 394.833C259.948 393.751 256.816 392.552 253.8 391.237C250.861 389.923 248.232 388.299 245.912 386.365C243.592 384.432 241.736 382.112 240.344 379.405C239.029 376.621 238.372 373.296 238.372 369.429C238.372 365.64 239.184 362.315 240.808 359.453C242.432 356.515 244.558 354.079 247.188 352.145C249.894 350.212 252.949 348.781 256.352 347.853C259.832 346.848 263.389 346.345 267.024 346.345C270.504 346.345 274.409 346.771 278.74 347.621C283.148 348.395 288.097 349.864 293.588 352.029L288.6 364.789C284.424 363.243 280.518 362.083 276.884 361.309C273.249 360.459 269.885 360.033 266.792 360.033C265.168 360.033 263.505 360.188 261.804 360.497C260.102 360.807 258.517 361.348 257.048 362.121C255.656 362.895 254.496 363.9 253.568 365.137C252.64 366.297 252.176 367.805 252.176 369.661C252.176 371.595 252.678 373.219 253.684 374.533C254.689 375.848 255.965 376.969 257.512 377.897C259.058 378.748 260.721 379.483 262.5 380.101C264.278 380.643 265.864 381.145 267.256 381.609Z" fill="white"/>
</svg>
