<svg width="391" height="431" viewBox="0 0 391 431" fill="none" xmlns="http://www.w3.org/2000/svg">
<path d="M240.623 74.2003C240.512 73.9777 240.401 73.8664 240.178 73.6438C229.271 61.4012 213.801 44.0389 202.671 31.685C199.221 28.0122 195.771 24.3394 192.543 20.5553C191.764 19.665 191.096 18.7746 190.317 17.8842C189.649 17.2164 189.316 16.7712 189.316 16.7712H189.427C185.643 12.3194 182.638 7.31103 180.523 1.9688L179.967 0.744534C179.967 0.633238 179.855 0.633238 179.744 0.521941C179.633 0.410645 179.41 0.410645 179.299 0.410645H179.188C178.965 0.410645 178.854 0.521941 178.742 0.521941C178.631 0.633238 178.631 0.633238 178.52 0.744534L177.963 1.9688C175.737 7.31103 172.732 12.3194 169.06 16.7712H169.171C169.171 16.7712 168.837 17.2164 168.169 17.8842C167.39 18.7746 166.722 19.665 165.943 20.5553C162.604 24.3394 159.265 28.0122 155.815 31.685C144.797 44.0389 129.215 61.4012 118.308 73.6438C118.197 73.8664 118.086 73.9777 117.863 74.2003C76.6834 129.07 121.425 173.811 121.425 173.811H121.313C134.558 189.17 153.367 198.63 173.511 200.077C175.292 200.299 177.184 200.411 179.188 200.411H179.299C181.191 200.411 183.083 200.299 184.975 200.077C205.231 198.63 223.929 189.17 237.173 173.811H237.062C237.062 173.811 281.803 129.07 240.623 74.2003ZM144.797 112.82L143.795 114.378L143.684 114.49C136.116 123.616 131.664 133.41 130.217 143.093C129.994 144.317 128.882 145.096 127.769 144.874C126.989 144.762 126.433 144.206 126.099 143.538C124.096 138.864 122.76 133.967 122.092 128.958C119.644 111.262 124.986 95.7918 136.338 82.5475C140.902 77.3166 145.465 72.0857 150.028 66.8547C150.807 65.9643 152.143 65.8531 153.033 66.6321C153.144 66.7434 153.144 66.7434 153.255 66.8547C156.928 71.084 161.714 76.5375 167.056 82.7701C167.724 83.5492 167.724 84.7735 167.056 85.6638C159.711 94.4563 151.92 103.805 144.908 112.709L144.797 112.82ZM208.013 158.674C203.784 169.804 195.437 176.482 183.639 178.374C166.834 180.934 151.141 169.47 148.581 152.664C148.581 152.442 148.581 152.331 148.47 152.108C147.134 142.648 150.028 134.3 156.149 127.177C163.272 118.83 178.965 99.4646 179.188 99.1307C179.521 99.4646 196.216 120.277 202.449 127.623C210.462 136.86 212.243 147.433 208.013 158.674ZM232.944 141.201C232.833 141.535 232.61 141.98 232.499 142.314C232.053 143.427 230.829 143.983 229.716 143.538C229.048 143.204 228.492 142.648 228.381 141.869C226.822 132.52 222.371 123.171 215.136 114.378L215.025 114.267L214.357 113.265L213.912 112.709C208.125 105.363 177.518 69.5258 164.163 53.9443C163.495 53.1652 163.495 51.941 164.163 51.0506C168.614 46.1535 173.066 41.2565 177.407 36.2482C178.186 35.3578 179.521 35.3578 180.412 36.1369L180.523 36.2482C182.526 38.3628 184.419 40.4774 186.311 42.7034C198.442 56.2815 210.685 69.6371 222.482 83.3266C237.284 100.466 240.735 120.277 232.944 141.201Z" fill="#009CDE"/>
<path d="M354.925 211.648H368.837V214.431H363.273V228.231H360.49V214.431H354.925V211.648Z" fill="#009CDE"/>
<path d="M386.2 228.231L384.975 216.211L384.196 220.218L381.303 228.231H377.741L374.847 220.218L374.068 216.211L372.844 228.231H369.95L371.62 211.648H374.736L379.522 224.892L384.308 211.648H387.424L389.093 228.231H386.2Z" fill="#009CDE"/>
<path d="M31.163 215.99H0V297.46H31.163C53.645 297.46 71.8976 279.207 71.8976 256.725C71.8976 234.243 53.645 216.102 31.163 215.99ZM50.4174 275.979C45.2977 281.099 38.3973 283.993 31.163 283.881H13.5782V229.457H31.163C46.2994 229.569 58.4307 241.923 58.3194 256.948C58.2081 264.182 55.4257 270.971 50.4174 275.979ZM335.559 297.571H349.137V211.205H335.559V297.571ZM94.8247 242.034V237.025H81.2465V297.571H94.8247V260.175C94.8247 253.609 100.278 250.604 105.398 250.604H113.856V237.025H105.398C101.28 237.025 97.4958 238.918 94.8247 242.034ZM167.279 268.411C167.39 273.086 165.943 277.537 163.161 281.322C160.378 284.772 156.149 286.664 151.697 286.552C148.024 286.664 144.463 285.328 141.681 282.88C138.787 280.097 137.34 275.979 137.34 270.637V238.25H123.762V273.753C123.651 280.542 126.433 287.109 131.441 291.783C136.561 296.569 143.35 299.129 150.25 299.018C156.483 299.129 162.604 296.903 167.167 292.562V297.682H180.746V238.25H167.167L167.279 268.411ZM224.263 236.692C217.362 236.692 210.684 239.14 205.454 243.703V238.138H191.875V324.616H205.454V292.117C210.684 296.68 217.362 299.129 224.263 299.129C241.068 299.129 254.647 285.217 254.647 268.077C254.647 250.604 240.957 236.692 224.263 236.692ZM236.06 280.32C232.944 283.547 228.715 285.44 224.263 285.44C214.691 285.217 207.123 277.426 207.234 267.855C207.234 263.18 209.015 258.728 212.243 255.278C215.359 251.939 219.699 250.158 224.263 250.158C233.5 250.158 241.068 258.061 241.068 267.855C241.068 272.418 239.288 276.981 236.06 280.32ZM310.184 243.703C304.953 239.14 298.275 236.58 291.375 236.692C274.569 236.692 260.991 250.604 260.991 267.743C260.991 284.883 274.569 298.906 291.375 298.906C298.275 299.018 305.064 296.458 310.184 291.895V297.571H323.762V238.027H310.184V243.703ZM291.263 285.44C281.914 285.44 274.346 277.537 274.346 267.743C274.346 258.061 281.914 250.158 291.263 250.158C300.612 250.158 308.18 258.061 308.18 267.743C308.18 277.426 300.612 285.44 291.263 285.44Z" fill="#009CDE"/>
<path d="M129.632 417.748C125.92 421.692 121.55 424.785 116.524 427.028C111.497 429.271 106.084 430.392 100.284 430.392C94.6383 430.392 89.3023 429.309 84.2756 427.144C79.3263 424.979 74.9956 422.001 71.2836 418.212C67.5716 414.345 64.633 409.899 62.4676 404.872C60.3796 399.768 59.3356 394.316 59.3356 388.516C59.3356 382.716 60.3796 377.264 62.4676 372.16C64.633 367.056 67.5716 362.609 71.2836 358.82C74.9956 355.031 79.3263 352.053 84.2756 349.888C89.3023 347.645 94.6383 346.524 100.284 346.524C106.084 346.524 111.497 347.645 116.524 349.888C121.55 352.131 125.92 355.224 129.632 359.168L119.888 368.912C117.413 366.205 114.474 364.117 111.072 362.648C107.746 361.101 104.15 360.328 100.284 360.328C96.5716 360.328 93.053 361.063 89.7276 362.532C86.4023 364.001 83.5023 366.012 81.0276 368.564C78.6303 371.116 76.697 374.093 75.2276 377.496C73.8356 380.899 73.1396 384.572 73.1396 388.516C73.1396 392.383 73.8356 396.056 75.2276 399.536C76.697 402.939 78.6303 405.916 81.0276 408.468C83.5023 411.02 86.4023 413.031 89.7276 414.5C93.053 415.969 96.5716 416.704 100.284 416.704C104.15 416.704 107.746 415.931 111.072 414.384C114.474 412.837 117.413 410.711 119.888 408.004L129.632 417.748ZM215.786 429.116L209.754 369.956L205.81 389.56L191.658 429.116H174.026L159.874 389.56L156.046 369.956L150.014 429.116H136.094L144.33 347.8H159.642L182.842 412.76L206.042 347.8H221.354L229.59 429.116H215.786ZM267.256 381.904C270.504 382.909 273.636 384.108 276.652 385.5C279.668 386.815 282.336 388.477 284.656 390.488C286.976 392.421 288.793 394.741 290.108 397.448C291.422 400.077 292.08 403.248 292.08 406.96C292.08 407.115 292.08 407.308 292.08 407.54C292.002 411.252 291.152 414.539 289.528 417.4C287.981 420.261 285.893 422.659 283.264 424.592C280.634 426.525 277.618 427.995 274.216 429C270.813 430.005 267.333 430.508 263.776 430.508C260.141 430.508 256.081 430.044 251.596 429.116C247.11 428.188 242.006 426.525 236.284 424.128L241.504 411.484C245.834 413.185 249.856 414.5 253.568 415.428C257.357 416.279 260.798 416.704 263.892 416.704C265.516 416.704 267.178 416.549 268.88 416.24C270.581 415.931 272.128 415.389 273.52 414.616C274.912 413.843 276.033 412.837 276.884 411.6C277.812 410.363 278.276 408.855 278.276 407.076C278.276 405.143 277.773 403.519 276.768 402.204C275.762 400.889 274.486 399.807 272.94 398.956C271.393 398.028 269.73 397.255 267.952 396.636C266.173 396.017 264.588 395.515 263.196 395.128C259.948 394.045 256.816 392.847 253.8 391.532C250.861 390.217 248.232 388.593 245.912 386.66C243.592 384.727 241.736 382.407 240.344 379.7C239.029 376.916 238.372 373.591 238.372 369.724C238.372 365.935 239.184 362.609 240.808 359.748C242.432 356.809 244.558 354.373 247.188 352.44C249.894 350.507 252.949 349.076 256.352 348.148C259.832 347.143 263.389 346.64 267.024 346.64C270.504 346.64 274.409 347.065 278.74 347.916C283.148 348.689 288.097 350.159 293.588 352.324L288.6 365.084C284.424 363.537 280.518 362.377 276.884 361.604C273.249 360.753 269.885 360.328 266.792 360.328C265.168 360.328 263.505 360.483 261.804 360.792C260.102 361.101 258.517 361.643 257.048 362.416C255.656 363.189 254.496 364.195 253.568 365.432C252.64 366.592 252.176 368.1 252.176 369.956C252.176 371.889 252.678 373.513 253.684 374.828C254.689 376.143 255.965 377.264 257.512 378.192C259.058 379.043 260.721 379.777 262.5 380.396C264.278 380.937 265.864 381.44 267.256 381.904Z" fill="#009CDE"/>
</svg>
