<svg width="241" height="328" viewBox="0 0 241 328" fill="none" xmlns="http://www.w3.org/2000/svg">
<path d="M181.525 74.641C181.405 74.4217 181.306 74.3021 181.086 74.0828C170.241 61.9017 154.85 44.6368 143.766 32.336C140.337 28.6877 136.907 25.0194 133.698 21.2713C132.92 20.3941 132.262 19.497 131.485 18.6198C130.827 17.9619 130.488 17.5034 130.488 17.5034H130.608C126.84 13.0775 123.849 8.09338 121.756 2.77037L121.198 1.55425C121.198 1.43463 121.078 1.43463 120.978 1.33495C120.859 1.33495 120.639 1.21533 120.54 1.21533H120.4C120.181 1.21533 120.061 1.33495 119.962 1.33495C119.842 1.45457 119.842 1.45457 119.742 1.55425L119.184 2.77037C116.971 8.09338 113.981 13.0575 110.332 17.5034H110.452C110.452 17.5034 110.113 17.942 109.455 18.6198C108.678 19.497 108.02 20.3941 107.242 21.2713C103.913 25.0393 100.603 28.6877 97.1742 32.336C86.1096 44.6168 70.599 61.9017 59.7537 74.0828C59.634 74.3021 59.5344 74.4217 59.3151 74.641C18.3258 129.227 62.8239 173.745 62.8239 173.745H62.7042C75.8822 189.016 94.5825 198.426 114.639 199.881C116.413 200.101 118.287 200.22 120.281 200.22H120.4C122.274 200.22 124.168 200.101 126.042 199.881C146.198 198.446 164.798 189.036 177.976 173.745H177.857C177.976 173.745 222.494 129.227 181.525 74.641ZM86.1893 113.058L85.1925 114.613L85.0729 114.733C77.5369 123.804 73.111 133.553 71.6756 143.182C71.4563 144.398 70.3399 145.176 69.2434 144.957C68.4659 144.837 67.9076 144.299 67.5887 143.621C65.595 138.976 64.2593 134.091 63.6014 129.107C61.0495 111.503 66.3725 96.1325 77.6565 82.9545C82.202 77.7511 86.7276 72.5477 91.2731 67.3443C92.0506 66.4671 93.3863 66.3475 94.2635 67.125C94.3832 67.2446 94.3832 67.2446 94.4828 67.3443C98.1312 71.5509 102.896 76.9736 108.219 83.1738C108.877 83.9513 108.877 85.1674 108.219 86.0446C100.902 94.7967 93.167 104.087 86.1893 112.959V113.058ZM149.069 158.673C144.862 169.738 136.549 176.396 124.826 178.27C108.099 180.822 92.4892 169.419 89.9573 152.692C89.9573 152.473 89.9573 152.353 89.8377 152.134C88.5019 142.724 91.3927 134.41 97.4733 127.333C104.551 119.019 120.181 99.7609 120.4 99.422C120.739 99.7609 137.346 120.455 143.546 127.771C151.401 136.982 153.295 147.489 149.069 158.673ZM173.77 141.288C173.65 141.627 173.431 142.066 173.331 142.405C172.893 143.521 171.677 144.06 170.56 143.621C169.902 143.282 169.344 142.744 169.224 141.966C167.669 132.656 163.243 123.366 156.046 114.613L155.927 114.494L155.269 113.497L154.83 112.939C149.069 105.622 118.626 69.9759 105.328 54.3657C104.67 53.5882 104.67 52.3721 105.328 51.4949C109.754 46.6304 114.18 41.746 118.506 36.7619C119.284 35.8847 120.619 35.8847 121.497 36.6423L121.616 36.7619C123.61 38.8752 125.484 40.9685 127.378 43.1814C139.439 56.6983 151.621 69.9759 163.363 83.5925C178.196 100.778 181.625 120.475 173.77 141.288Z" fill="white"/>
<path d="M74.7779 314.453C71.0659 318.397 66.6965 321.491 61.6699 323.733C56.6432 325.976 51.2299 327.097 45.4299 327.097C39.7845 327.097 34.4485 326.015 29.4219 323.849C24.4725 321.684 20.1419 318.707 16.4299 314.917C12.7179 311.051 9.77921 306.604 7.61388 301.577C5.52588 296.473 4.48188 291.021 4.48188 285.221C4.48188 279.421 5.52588 273.969 7.61388 268.865C9.77921 263.761 12.7179 259.315 16.4299 255.525C20.1419 251.736 24.4725 248.759 29.4219 246.593C34.4485 244.351 39.7845 243.229 45.4299 243.229C51.2299 243.229 56.6432 244.351 61.6699 246.593C66.6965 248.836 71.0659 251.929 74.7779 255.873L65.0339 265.617C62.5592 262.911 59.6205 260.823 56.2179 259.353C52.8925 257.807 49.2965 257.033 45.4299 257.033C41.7179 257.033 38.1992 257.768 34.8739 259.237C31.5485 260.707 28.6485 262.717 26.1739 265.269C23.7765 267.821 21.8432 270.799 20.3739 274.201C18.9819 277.604 18.2859 281.277 18.2859 285.221C18.2859 289.088 18.9819 292.761 20.3739 296.241C21.8432 299.644 23.7765 302.621 26.1739 305.173C28.6485 307.725 31.5485 309.736 34.8739 311.205C38.1992 312.675 41.7179 313.409 45.4299 313.409C49.2965 313.409 52.8925 312.636 56.2179 311.089C59.6205 309.543 62.5592 307.416 65.0339 304.709L74.7779 314.453ZM160.932 325.821L154.9 266.661L150.956 286.265L136.804 325.821H119.172L105.02 286.265L101.192 266.661L95.1603 325.821H81.2403L89.4763 244.505H104.788L127.988 309.465L151.188 244.505H166.5L174.736 325.821H160.932ZM212.402 278.609C215.65 279.615 218.782 280.813 221.798 282.205C224.814 283.52 227.482 285.183 229.802 287.193C232.122 289.127 233.939 291.447 235.254 294.153C236.569 296.783 237.226 299.953 237.226 303.665C237.226 303.82 237.226 304.013 237.226 304.245C237.149 307.957 236.298 311.244 234.674 314.105C233.127 316.967 231.039 319.364 228.41 321.297C225.781 323.231 222.765 324.7 219.362 325.705C215.959 326.711 212.479 327.213 208.922 327.213C205.287 327.213 201.227 326.749 196.742 325.821C192.257 324.893 187.153 323.231 181.43 320.833L186.65 308.189C190.981 309.891 195.002 311.205 198.714 312.133C202.503 312.984 205.945 313.409 209.038 313.409C210.662 313.409 212.325 313.255 214.026 312.945C215.727 312.636 217.274 312.095 218.666 311.321C220.058 310.548 221.179 309.543 222.03 308.305C222.958 307.068 223.422 305.56 223.422 303.781C223.422 301.848 222.919 300.224 221.914 298.909C220.909 297.595 219.633 296.512 218.086 295.661C216.539 294.733 214.877 293.96 213.098 293.341C211.319 292.723 209.734 292.22 208.342 291.833C205.094 290.751 201.962 289.552 198.946 288.237C196.007 286.923 193.378 285.299 191.058 283.365C188.738 281.432 186.882 279.112 185.49 276.405C184.175 273.621 183.518 270.296 183.518 266.429C183.518 262.64 184.33 259.315 185.954 256.453C187.578 253.515 189.705 251.079 192.334 249.145C195.041 247.212 198.095 245.781 201.498 244.853C204.978 243.848 208.535 243.345 212.17 243.345C215.65 243.345 219.555 243.771 223.886 244.621C228.294 245.395 233.243 246.864 238.734 249.029L233.746 261.789C229.57 260.243 225.665 259.083 222.03 258.309C218.395 257.459 215.031 257.033 211.938 257.033C210.314 257.033 208.651 257.188 206.95 257.497C205.249 257.807 203.663 258.348 202.194 259.121C200.802 259.895 199.642 260.9 198.714 262.137C197.786 263.297 197.322 264.805 197.322 266.661C197.322 268.595 197.825 270.219 198.83 271.533C199.835 272.848 201.111 273.969 202.658 274.897C204.205 275.748 205.867 276.483 207.646 277.101C209.425 277.643 211.01 278.145 212.402 278.609Z" fill="white"/>
</svg>
