<svg width="427" height="201" viewBox="0 0 427 201" fill="none" xmlns="http://www.w3.org/2000/svg">
<path d="M140.13 74.7304C140.01 74.5111 139.91 74.3915 139.691 74.1722C128.846 61.991 113.455 44.7261 102.37 32.4254C98.941 28.777 95.512 25.1087 92.3022 21.3607C91.5247 20.4835 90.8668 19.5864 90.0892 18.7092C89.4314 18.0512 89.0924 17.5927 89.0924 17.5927H89.2121C85.4441 13.1668 82.4536 8.18274 80.3603 2.85973L79.8021 1.64361C79.8021 1.52399 79.6825 1.52399 79.5828 1.42431C79.4632 1.42431 79.2439 1.30469 79.1442 1.30469H79.0046C78.7853 1.30469 78.6657 1.42431 78.566 1.42431C78.4464 1.54392 78.4464 1.54392 78.3467 1.64361L77.7885 2.85973C75.5756 8.18274 72.5851 13.1469 68.9368 17.5927H69.0564C69.0564 17.5927 68.7175 18.0313 68.0596 18.7092C67.282 19.5864 66.6241 20.4835 65.8466 21.3607C62.5172 25.1287 59.2078 28.777 55.7787 32.4254C44.714 44.7062 29.2035 61.991 18.3581 74.1722C18.2385 74.3915 18.1388 74.5111 17.9195 74.7304C-23.0697 129.316 21.4283 173.834 21.4283 173.834H21.3087C34.4867 189.105 53.187 198.515 73.243 199.971C75.0173 200.19 76.8914 200.31 78.885 200.31H79.0046C80.8786 200.31 82.7726 200.19 84.6466 199.971C104.802 198.535 123.403 189.125 136.581 173.834H136.461C136.581 173.834 181.099 129.316 140.13 74.7304ZM44.7938 113.148L43.797 114.703L43.6774 114.822C36.1414 123.894 31.7155 133.642 30.2801 143.272C30.0608 144.488 28.9444 145.265 27.8479 145.046C27.0703 144.926 26.5121 144.388 26.1931 143.71C24.1995 139.065 22.8638 134.181 22.2059 129.197C19.654 111.593 24.977 96.2218 36.261 83.0439C40.8065 77.8405 45.3321 72.6371 49.8776 67.4337C50.6551 66.5565 51.9908 66.4369 52.868 67.2144C52.9876 67.334 52.9876 67.334 53.0873 67.4337C56.7357 71.6403 61.5005 77.063 66.8235 83.2632C67.4814 84.0407 67.4814 85.2568 66.8235 86.134C59.5068 94.8861 51.7715 104.176 44.7938 113.048V113.148ZM107.673 158.762C103.467 169.827 95.1531 176.486 83.4305 178.36C66.7039 180.912 51.0937 169.508 48.5618 152.781C48.5618 152.562 48.5618 152.442 48.4422 152.223C47.1064 142.813 49.9972 134.5 56.0778 127.422C63.1552 119.109 78.7853 99.8502 79.0046 99.5113C79.3435 99.8502 95.9505 120.544 102.151 127.861C110.006 137.071 111.9 147.578 107.673 158.762ZM132.374 141.378C132.255 141.717 132.035 142.155 131.936 142.494C131.497 143.611 130.281 144.149 129.165 143.71C128.507 143.371 127.948 142.833 127.829 142.056C126.274 132.745 121.848 123.455 114.651 114.703L114.531 114.583L113.873 113.586L113.435 113.028C107.673 105.712 77.2303 70.0653 63.9327 54.4551C63.2748 53.6776 63.2748 52.4615 63.9327 51.5843C68.3586 46.7198 72.7845 41.8354 77.1107 36.8513C77.8882 35.9741 79.2239 35.9741 80.1011 36.7316L80.2207 36.8513C82.2144 38.9645 84.0884 41.0578 85.9824 43.2708C98.0439 56.7876 110.225 70.0653 121.968 83.6818C136.8 100.867 140.229 120.564 132.374 141.378Z" fill="white"/>
<path d="M259.565 138.293C255.853 142.237 251.484 145.33 246.457 147.573C241.43 149.815 236.017 150.937 230.217 150.937C224.572 150.937 219.236 149.854 214.209 147.689C209.26 145.523 204.929 142.546 201.217 138.757C197.505 134.89 194.566 130.443 192.401 125.417C190.313 120.313 189.269 114.861 189.269 109.061C189.269 103.261 190.313 97.8086 192.401 92.7046C194.566 87.6006 197.505 83.154 201.217 79.3646C204.929 75.5753 209.26 72.598 214.209 70.4326C219.236 68.19 224.572 67.0686 230.217 67.0686C236.017 67.0686 241.43 68.19 246.457 70.4326C251.484 72.6753 255.853 75.7686 259.565 79.7126L249.821 89.4566C247.346 86.75 244.408 84.662 241.005 83.1926C237.68 81.646 234.084 80.8726 230.217 80.8726C226.505 80.8726 222.986 81.6073 219.661 83.0766C216.336 84.546 213.436 86.5566 210.961 89.1086C208.564 91.6606 206.63 94.638 205.161 98.0406C203.769 101.443 203.073 105.117 203.073 109.061C203.073 112.927 203.769 116.601 205.161 120.081C206.63 123.483 208.564 126.461 210.961 129.013C213.436 131.565 216.336 133.575 219.661 135.045C222.986 136.514 226.505 137.249 230.217 137.249C234.084 137.249 237.68 136.475 241.005 134.929C244.408 133.382 247.346 131.255 249.821 128.549L259.565 138.293ZM345.719 149.661L339.687 90.5006L335.743 110.105L321.591 149.661H303.959L289.807 110.105L285.979 90.5006L279.947 149.661H266.027L274.263 68.3446H289.575L312.775 133.305L335.975 68.3446H351.287L359.523 149.661H345.719ZM397.189 102.449C400.437 103.454 403.569 104.653 406.585 106.045C409.601 107.359 412.269 109.022 414.589 111.033C416.909 112.966 418.726 115.286 420.041 117.993C421.356 120.622 422.013 123.793 422.013 127.505C422.013 127.659 422.013 127.853 422.013 128.085C421.936 131.797 421.085 135.083 419.461 137.945C417.914 140.806 415.826 143.203 413.197 145.137C410.568 147.07 407.552 148.539 404.149 149.545C400.746 150.55 397.266 151.053 393.709 151.053C390.074 151.053 386.014 150.589 381.529 149.661C377.044 148.733 371.94 147.07 366.217 144.673L371.437 132.029C375.768 133.73 379.789 135.045 383.501 135.973C387.29 136.823 390.732 137.249 393.825 137.249C395.449 137.249 397.112 137.094 398.813 136.785C400.514 136.475 402.061 135.934 403.453 135.161C404.845 134.387 405.966 133.382 406.817 132.145C407.745 130.907 408.209 129.399 408.209 127.621C408.209 125.687 407.706 124.063 406.701 122.749C405.696 121.434 404.42 120.351 402.873 119.501C401.326 118.573 399.664 117.799 397.885 117.181C396.106 116.562 394.521 116.059 393.129 115.673C389.881 114.59 386.749 113.391 383.733 112.077C380.794 110.762 378.165 109.138 375.845 107.205C373.525 105.271 371.669 102.951 370.277 100.245C368.962 97.4606 368.305 94.1353 368.305 90.2686C368.305 86.4793 369.117 83.154 370.741 80.2926C372.365 77.354 374.492 74.918 377.121 72.9846C379.828 71.0513 382.882 69.6206 386.285 68.6926C389.765 67.6873 393.322 67.1846 396.957 67.1846C400.437 67.1846 404.342 67.61 408.673 68.4606C413.081 69.234 418.03 70.7033 423.521 72.8686L418.533 85.6286C414.357 84.082 410.452 82.922 406.817 82.1486C403.182 81.298 399.818 80.8726 396.725 80.8726C395.101 80.8726 393.438 81.0273 391.737 81.3366C390.036 81.646 388.45 82.1873 386.981 82.9606C385.589 83.734 384.429 84.7393 383.501 85.9766C382.573 87.1366 382.109 88.6446 382.109 90.5006C382.109 92.434 382.612 94.058 383.617 95.3726C384.622 96.6873 385.898 97.8086 387.445 98.7366C388.992 99.5873 390.654 100.322 392.433 100.941C394.212 101.482 395.797 101.985 397.189 102.449Z" fill="white"/>
</svg>
