<svg width="61" height="61" viewBox="0 0 61 61" fill="none" xmlns="http://www.w3.org/2000/svg">
<path d="M30.5 6.37109C25.6791 6.37109 20.9664 7.80066 16.958 10.479C12.9495 13.1574 9.82533 16.9642 7.98045 21.4182C6.13556 25.8721 5.65286 30.7731 6.59337 35.5014C7.53388 40.2297 9.85538 44.5729 13.2643 47.9818C16.6732 51.3907 21.0164 53.7122 25.7447 54.6527C30.473 55.5932 35.374 55.1105 39.8279 53.2657C44.2819 51.4208 48.0887 48.2966 50.7671 44.2881C53.4454 40.2797 54.875 35.567 54.875 30.7461C54.8682 24.2835 52.2979 18.0876 47.7282 13.5179C43.1585 8.94818 36.9626 6.37792 30.5 6.37109ZM32.375 51.2844V36.3711H38C38.4973 36.3711 38.9742 36.1735 39.3258 35.8219C39.6775 35.4703 39.875 34.9934 39.875 34.4961C39.875 33.9988 39.6775 33.5219 39.3258 33.1703C38.9742 32.8186 38.4973 32.6211 38 32.6211H32.375V26.9961C32.375 26.0015 32.7701 25.0477 33.4734 24.3444C34.1766 23.6412 35.1304 23.2461 36.125 23.2461H39.875C40.3723 23.2461 40.8492 23.0485 41.2008 22.6969C41.5525 22.3453 41.75 21.8684 41.75 21.3711C41.75 20.8738 41.5525 20.3969 41.2008 20.0453C40.8492 19.6936 40.3723 19.4961 39.875 19.4961H36.125C34.1359 19.4961 32.2282 20.2863 30.8217 21.6928C29.4152 23.0993 28.625 25.007 28.625 26.9961V32.6211H23C22.5027 32.6211 22.0258 32.8186 21.6742 33.1703C21.3226 33.5219 21.125 33.9988 21.125 34.4961C21.125 34.9934 21.3226 35.4703 21.6742 35.8219C22.0258 36.1735 22.5027 36.3711 23 36.3711H28.625V51.2844C23.3394 50.8019 18.4432 48.3003 14.9549 44.2999C11.4667 40.2996 9.65487 35.1084 9.89637 29.8063C10.1379 24.5042 12.4141 19.4993 16.2516 15.8326C20.0891 12.1659 25.1924 10.1198 30.5 10.1198C35.8076 10.1198 40.9109 12.1659 44.7484 15.8326C48.5859 19.4993 50.8621 24.5042 51.1036 29.8063C51.3452 35.1084 49.5333 40.2996 46.0451 44.2999C42.5568 48.3003 37.6606 50.8019 32.375 51.2844Z" fill="#12285F"/>
</svg>
