<svg width="18" height="19" viewBox="0 0 18 19" fill="none" xmlns="http://www.w3.org/2000/svg">
<path d="M16.3115 7.65039C16.3115 12.291 8.99902 16.2285 8.99902 16.2285C8.99902 16.2285 1.68652 12.291 1.68652 7.65039C1.68652 6.6434 2.08655 5.67765 2.7986 4.96559C3.51065 4.25354 4.4764 3.85352 5.4834 3.85352C7.07176 3.85352 8.4323 4.71906 8.99902 6.10352C9.56574 4.71906 10.9263 3.85352 12.5146 3.85352C13.5216 3.85352 14.4874 4.25354 15.1994 4.96559C15.9115 5.67765 16.3115 6.6434 16.3115 7.65039Z" fill="url(#paint0_linear_15898_1341)"/>
<path d="M12.5146 3.29102C11.0627 3.29102 9.79145 3.91539 8.99902 4.97078C8.2066 3.91539 6.93535 3.29102 5.4834 3.29102C4.32762 3.29232 3.21955 3.75203 2.40229 4.56929C1.58503 5.38655 1.12533 6.49461 1.12402 7.65039C1.12402 12.5723 8.42176 16.5562 8.73254 16.7207C8.81445 16.7648 8.90601 16.7878 8.99902 16.7878C9.09204 16.7878 9.1836 16.7648 9.26551 16.7207C9.57629 16.5562 16.874 12.5723 16.874 7.65039C16.8727 6.49461 16.413 5.38655 15.5958 4.56929C14.7785 3.75203 13.6704 3.29232 12.5146 3.29102ZM8.99902 15.5816C7.71512 14.8335 2.24902 11.4255 2.24902 7.65039C2.25014 6.79292 2.59126 5.9709 3.19758 5.36458C3.8039 4.75825 4.62593 4.41713 5.4834 4.41602C6.85098 4.41602 7.99918 5.14445 8.47871 6.31445C8.52109 6.41762 8.59318 6.50586 8.68583 6.56796C8.77847 6.63006 8.88749 6.66322 8.99902 6.66322C9.11056 6.66322 9.21957 6.63006 9.31222 6.56796C9.40486 6.50586 9.47696 6.41762 9.51934 6.31445C9.99887 5.14234 11.1471 4.41602 12.5146 4.41602C13.3721 4.41713 14.1941 4.75825 14.8005 5.36458C15.4068 5.9709 15.7479 6.79292 15.749 7.65039C15.749 11.4198 10.2815 14.8328 8.99902 15.5816Z" fill="#12285F"/>
<defs>
<linearGradient id="paint0_linear_15898_1341" x1="16.3115" y1="10.041" x2="1.68652" y2="10.041" gradientUnits="userSpaceOnUse">
<stop stop-color="#CCBAF4"/>
<stop offset="1" stop-color="#F46351"/>
</linearGradient>
</defs>
</svg>
