<svg width="61" height="61" viewBox="0 0 61 61" fill="none" xmlns="http://www.w3.org/2000/svg">
<path d="M30.5 19.4961C28.275 19.4961 26.0999 20.1559 24.2498 21.3921C22.3998 22.6282 20.9578 24.3852 20.1064 26.4409C19.2549 28.4966 19.0321 30.7586 19.4662 32.9409C19.9003 35.1231 20.9717 37.1277 22.545 38.701C24.1184 40.2744 26.1229 41.3458 28.3052 41.7799C30.4875 42.214 32.7495 41.9912 34.8052 41.1397C36.8609 40.2883 38.6179 38.8463 39.854 36.9963C41.0902 35.1462 41.75 32.9711 41.75 30.7461C41.7469 27.7634 40.5606 24.9037 38.4515 22.7946C36.3424 20.6855 33.4827 19.4992 30.5 19.4961ZM30.5 38.2461C29.0166 38.2461 27.5666 37.8062 26.3332 36.9821C25.0999 36.158 24.1386 34.9867 23.5709 33.6162C23.0032 32.2458 22.8547 30.7378 23.1441 29.2829C23.4335 27.8281 24.1478 26.4917 25.1967 25.4428C26.2456 24.3939 27.582 23.6796 29.0368 23.3902C30.4917 23.1008 31.9997 23.2493 33.3701 23.817C34.7406 24.3847 35.9119 25.3459 36.736 26.5793C37.5601 27.8127 38 29.2627 38 30.7461C38 32.7352 37.2098 34.6429 35.8033 36.0494C34.3968 37.4559 32.4891 38.2461 30.5 38.2461ZM41.75 6.37109H19.25C15.7702 6.37482 12.4339 7.75882 9.97334 10.2194C7.51273 12.68 6.12872 16.0163 6.125 19.4961V41.9961C6.12872 45.4759 7.51273 48.8122 9.97334 51.2728C12.4339 53.7334 15.7702 55.1174 19.25 55.1211H41.75C45.2298 55.1174 48.5661 53.7334 51.0267 51.2728C53.4873 48.8122 54.8713 45.4759 54.875 41.9961V19.4961C54.8713 16.0163 53.4873 12.68 51.0267 10.2194C48.5661 7.75882 45.2298 6.37482 41.75 6.37109ZM51.125 41.9961C51.125 44.4825 50.1373 46.8671 48.3791 48.6252C46.621 50.3834 44.2364 51.3711 41.75 51.3711H19.25C16.7636 51.3711 14.379 50.3834 12.6209 48.6252C10.8627 46.8671 9.875 44.4825 9.875 41.9961V19.4961C9.875 17.0097 10.8627 14.6251 12.6209 12.867C14.379 11.1088 16.7636 10.1211 19.25 10.1211H41.75C44.2364 10.1211 46.621 11.1088 48.3791 12.867C50.1373 14.6251 51.125 17.0097 51.125 19.4961V41.9961ZM45.5 18.5586C45.5 19.1149 45.335 19.6586 45.026 20.1211C44.717 20.5836 44.2777 20.9441 43.7638 21.157C43.2499 21.3699 42.6844 21.4256 42.1388 21.3171C41.5932 21.2085 41.0921 20.9407 40.6988 20.5473C40.3054 20.154 40.0376 19.6529 39.929 19.1073C39.8205 18.5617 39.8762 17.9962 40.0891 17.4823C40.302 16.9684 40.6624 16.5291 41.125 16.2201C41.5875 15.911 42.1312 15.7461 42.6875 15.7461C43.4334 15.7461 44.1488 16.0424 44.6762 16.5699C45.2037 17.0973 45.5 17.8127 45.5 18.5586Z" fill="#12285F"/>
</svg>
