<svg width="61" height="61" viewBox="0 0 61 61" fill="none" xmlns="http://www.w3.org/2000/svg">
<path d="M51.125 6.37109H9.875C8.88044 6.37109 7.92661 6.76618 7.22335 7.46944C6.52009 8.1727 6.125 9.12653 6.125 10.1211V51.3711C6.125 52.3657 6.52009 53.3195 7.22335 54.0227C7.92661 54.726 8.88044 55.1211 9.875 55.1211H51.125C52.1196 55.1211 53.0734 54.726 53.7766 54.0227C54.4799 53.3195 54.875 52.3657 54.875 51.3711V10.1211C54.875 9.12653 54.4799 8.1727 53.7766 7.46944C53.0734 6.76618 52.1196 6.37109 51.125 6.37109ZM51.125 51.3711H9.875V10.1211H51.125V51.3711ZM23 26.9961V41.9961C23 42.4934 22.8025 42.9703 22.4508 43.3219C22.0992 43.6735 21.6223 43.8711 21.125 43.8711C20.6277 43.8711 20.1508 43.6735 19.7992 43.3219C19.4475 42.9703 19.25 42.4934 19.25 41.9961V26.9961C19.25 26.4988 19.4475 26.0219 19.7992 25.6703C20.1508 25.3186 20.6277 25.1211 21.125 25.1211C21.6223 25.1211 22.0992 25.3186 22.4508 25.6703C22.8025 26.0219 23 26.4988 23 26.9961ZM43.625 33.5586V41.9961C43.625 42.4934 43.4275 42.9703 43.0758 43.3219C42.7242 43.6735 42.2473 43.8711 41.75 43.8711C41.2527 43.8711 40.7758 43.6735 40.4242 43.3219C40.0725 42.9703 39.875 42.4934 39.875 41.9961V33.5586C39.875 32.3154 39.3811 31.1231 38.5021 30.244C37.623 29.365 36.4307 28.8711 35.1875 28.8711C33.9443 28.8711 32.752 29.365 31.8729 30.244C30.9939 31.1231 30.5 32.3154 30.5 33.5586V41.9961C30.5 42.4934 30.3025 42.9703 29.9508 43.3219C29.5992 43.6735 29.1223 43.8711 28.625 43.8711C28.1277 43.8711 27.6508 43.6735 27.2992 43.3219C26.9475 42.9703 26.75 42.4934 26.75 41.9961V26.9961C26.7523 26.5368 26.9231 26.0944 27.23 25.7527C27.5369 25.411 27.9586 25.1938 28.4149 25.1424C28.8713 25.0909 29.3307 25.2088 29.706 25.4736C30.0812 25.7384 30.3463 26.1317 30.4508 26.5789C31.7192 25.7185 33.198 25.2198 34.7285 25.1364C36.2589 25.053 37.7832 25.3881 39.1376 26.1056C40.4919 26.8232 41.6253 27.8961 42.4159 29.2092C43.2065 30.5222 43.6245 32.0259 43.625 33.5586ZM23.9375 20.4336C23.9375 20.9899 23.7726 21.5336 23.4635 21.9961C23.1545 22.4586 22.7152 22.8191 22.2013 23.032C21.6874 23.2449 21.1219 23.3006 20.5763 23.1921C20.0307 23.0835 19.5296 22.8157 19.1363 22.4223C18.7429 22.029 18.4751 21.5279 18.3665 20.9823C18.258 20.4367 18.3137 19.8712 18.5266 19.3573C18.7395 18.8434 19.0999 18.4041 19.5625 18.0951C20.025 17.786 20.5687 17.6211 21.125 17.6211C21.8709 17.6211 22.5863 17.9174 23.1137 18.4449C23.6412 18.9723 23.9375 19.6877 23.9375 20.4336Z" fill="#12285F"/>
</svg>
