<svg width="24" height="25" viewBox="0 0 24 25" fill="none" xmlns="http://www.w3.org/2000/svg">
<g id="magnifying-glass">
<path id="Vector" d="M21.5306 20.9694L16.8365 16.2762C18.1971 14.6428 18.8755 12.5478 18.7307 10.4269C18.5859 8.30607 17.629 6.32268 16.0591 4.88935C14.4892 3.45602 12.4271 2.68311 10.3019 2.73141C8.17663 2.77971 6.15181 3.6455 4.64864 5.14867C3.14547 6.65184 2.27968 8.67666 2.23138 10.8019C2.18308 12.9272 2.95599 14.9892 4.38932 16.5591C5.82265 18.129 7.80604 19.0859 9.92691 19.2307C12.0478 19.3755 14.1428 18.6971 15.7762 17.3366L20.4693 22.0306C20.539 22.1003 20.6218 22.1556 20.7128 22.1933C20.8038 22.231 20.9014 22.2504 21 22.2504C21.0985 22.2504 21.1961 22.231 21.2871 22.1933C21.3782 22.1556 21.4609 22.1003 21.5306 22.0306C21.6003 21.9609 21.6556 21.8782 21.6933 21.7872C21.731 21.6961 21.7504 21.5985 21.7504 21.5C21.7504 21.4015 21.731 21.3039 21.6933 21.2128C21.6556 21.1218 21.6003 21.0391 21.5306 20.9694ZM3.74997 11C3.74997 9.66498 4.14585 8.35993 4.88755 7.2499C5.62925 6.13987 6.68345 5.2747 7.91686 4.76381C9.15026 4.25292 10.5075 4.11925 11.8168 4.3797C13.1262 4.64015 14.3289 5.28302 15.2729 6.22703C16.2169 7.17103 16.8598 8.37377 17.1203 9.68314C17.3807 10.9925 17.247 12.3497 16.7362 13.5831C16.2253 14.8165 15.3601 15.8707 14.2501 16.6124C13.14 17.3541 11.835 17.75 10.5 17.75C8.71037 17.748 6.99463 17.0362 5.72919 15.7708C4.46375 14.5053 3.75195 12.7896 3.74997 11Z" fill="#ffffff"/>
</g>
</svg>
