<svg width="61" height="61" viewBox="0 0 61 61" fill="none" xmlns="http://www.w3.org/2000/svg">
<path d="M43.625 8.24609H17.375C14.8886 8.24609 12.504 9.23381 10.7459 10.992C8.98772 12.7501 8 15.1347 8 17.6211V45.7461C8 48.2325 8.98772 50.6171 10.7459 52.3752C12.504 54.1334 14.8886 55.1211 17.375 55.1211H38C38.4973 55.1211 38.9742 54.9235 39.3258 54.5719C39.6775 54.2203 39.875 53.7434 39.875 53.2461C39.875 52.7488 39.6775 52.2719 39.3258 51.9203C38.9742 51.5686 38.4973 51.3711 38 51.3711H17.375C15.8832 51.3711 14.4524 50.7785 13.3975 49.7236C12.3426 48.6687 11.75 47.2379 11.75 45.7461V43.8711H43.625C44.8561 43.8711 46.0752 43.6286 47.2127 43.1575C48.3501 42.6863 49.3836 41.9958 50.2541 41.1252C51.1247 40.2547 51.8152 39.2212 52.2864 38.0838C52.7575 36.9463 53 35.7272 53 34.4961V17.6211C53 15.1347 52.0123 12.7501 50.2541 10.992C48.496 9.23381 46.1114 8.24609 43.625 8.24609ZM49.25 34.4961C49.25 35.9879 48.6574 37.4187 47.6025 38.4736C46.5476 39.5285 45.1168 40.1211 43.625 40.1211H11.75V17.6211C11.75 16.1293 12.3426 14.6985 13.3975 13.6436C14.4524 12.5887 15.8832 11.9961 17.375 11.9961H43.625C45.1168 11.9961 46.5476 12.5887 47.6025 13.6436C48.6574 14.6985 49.25 16.1293 49.25 17.6211V34.4961ZM43.625 25.1211V32.6211C43.625 33.1184 43.4275 33.5953 43.0758 33.9469C42.7242 34.2986 42.2473 34.4961 41.75 34.4961C41.2527 34.4961 40.7758 34.2986 40.4242 33.9469C40.0725 33.5953 39.875 33.1184 39.875 32.6211V25.1211C39.875 24.1265 39.4799 23.1727 38.7766 22.4694C38.0734 21.7662 37.1196 21.3711 36.125 21.3711C35.1304 21.3711 34.1766 21.7662 33.4734 22.4694C32.7701 23.1727 32.375 24.1265 32.375 25.1211V32.6211C32.375 33.1184 32.1775 33.5953 31.8258 33.9469C31.4742 34.2986 30.9973 34.4961 30.5 34.4961C30.0027 34.4961 29.5258 34.2986 29.1742 33.9469C28.8225 33.5953 28.625 33.1184 28.625 32.6211V25.1211C28.625 24.1265 28.2299 23.1727 27.5266 22.4694C26.8234 21.7662 25.8696 21.3711 24.875 21.3711C23.8804 21.3711 22.9266 21.7662 22.2234 22.4694C21.5201 23.1727 21.125 24.1265 21.125 25.1211V32.6211C21.125 33.1184 20.9275 33.5953 20.5758 33.9469C20.2242 34.2986 19.7473 34.4961 19.25 34.4961C18.7527 34.4961 18.2758 34.2986 17.9242 33.9469C17.5725 33.5953 17.375 33.1184 17.375 32.6211V25.1211C17.3767 23.5984 17.8419 22.1123 18.7086 20.8604C19.5754 19.6084 20.8026 18.65 22.2273 18.1124C23.6519 17.5749 25.2065 17.4837 26.6842 17.851C28.1619 18.2183 29.4928 19.0267 30.5 20.1688C31.5072 19.0267 32.8381 18.2183 34.3158 17.851C35.7935 17.4837 37.3481 17.5749 38.7727 18.1124C40.1974 18.65 41.4246 19.6084 42.2914 20.8604C43.1581 22.1123 43.6233 23.5984 43.625 25.1211Z" fill="#12285F"/>
</svg>
