<svg width="60" height="61" viewBox="0 0 60 61" fill="none" xmlns="http://www.w3.org/2000/svg">
<g clip-path="url(#clip0_16611_10133)">
<path d="M22.6973 20.0215C24.5525 20.0229 26.0512 21.5254 26.0498 23.3721V23.374C26.0512 25.2182 24.5529 26.7203 22.6973 26.7217H9.10156C7.24439 26.7189 5.74727 25.2157 5.75 23.373V23.3691C5.74889 21.5827 7.15469 20.1172 8.92969 20.0264L9.10254 20.0215H22.6973ZM22.6982 6.42188C24.5568 6.42565 26.053 7.92876 26.0518 9.77148V13.1201H22.7021C20.8467 13.1187 19.3494 11.6164 19.3506 9.77246V9.76953C19.3492 7.92512 20.8444 6.42429 22.6982 6.42188Z" stroke="#12285F" stroke-width="3.5"/>
<path d="M46.5479 23.3691C46.5467 21.5258 48.0438 20.0239 49.8984 20.0215C51.7537 20.0232 53.2511 21.5254 53.25 23.3691V23.3721C53.2514 25.2187 51.7527 26.7203 49.8975 26.7217H46.5479V23.3691ZM32.9502 9.76953C32.9488 7.92591 34.4458 6.42407 36.3008 6.42188C38.1562 6.42587 39.6508 7.92804 39.6494 9.76953V23.3721C39.6508 25.218 38.154 26.7182 36.2998 26.7207C34.4434 26.717 32.9475 25.2151 32.9502 23.373V9.76953Z" stroke="#12285F" stroke-width="3.5"/>
<path d="M36.2979 47.2236L36.4707 47.2275C38.2456 47.3186 39.6517 48.7848 39.6504 50.5713V50.5732C39.6518 52.4167 38.1545 53.9175 36.2998 53.9199C34.4433 53.9162 32.9469 52.414 32.9482 50.5732V47.2236H36.2979ZM49.8984 33.6191L50.0713 33.624C51.8477 33.7162 53.2526 35.1826 53.25 36.9678V36.9717C53.2513 38.8157 51.7531 40.318 49.8975 40.3193H36.3008C34.4466 40.318 32.949 38.8172 32.9502 36.9697V36.9668C32.9489 35.1802 34.3548 33.715 36.1299 33.624L36.3027 33.6191H49.8984Z" stroke="#12285F" stroke-width="3.5"/>
<path d="M12.4521 33.623V36.9736C12.4533 38.8173 10.9557 40.3184 9.10059 40.3203C7.24575 40.3181 5.74881 38.8171 5.75 36.9736V36.9707C5.74868 35.1841 7.15456 33.7188 8.92969 33.6279L9.10254 33.623H12.4521ZM19.3506 36.9707C19.3492 35.1264 20.844 33.6259 22.6992 33.625C24.556 33.6282 26.0525 35.1313 26.0498 36.9736V50.5752C26.0512 52.4188 24.5541 53.9196 22.6992 53.9219C20.8431 53.9179 19.3479 52.4161 19.3506 50.5742V36.9707Z" stroke="#12285F" stroke-width="3.5"/>
</g>
<defs>
<clipPath id="clip0_16611_10133">
<rect width="51" height="51" fill="white" transform="translate(4 4.67188)"/>
</clipPath>
</defs>
</svg>
