<?xml version="1.0" encoding="utf-8"?>
<svg width="130" height="54" version="1.1" id="Layer_1" xmlns="http://www.w3.org/2000/svg" x="0px" y="0px" viewBox="0 0 657 177.2" style="enable-background:new 0 0 657 177.2;">
  <style type="text/css">
	.st0{fill:#091E31;}
</style>
  <g id="Group_369" transform="translate(0 0)">
    <path id="Path_12574" class="st0" d="M3.9,9.6v31.5h50.4v128.6h60l9.7-32.8H92.3V41.1h49.2V9.6H3.9z"/>
    <path id="Path_12575" class="st0" d="M149.1,169.8h39.1L233.3,9.6h-39.1L149.1,169.8z"/>
    <path id="Path_12576" class="st0" d="M236.3,9.6l44.5,160.2h39.1L275.4,9.6L236.3,9.6z"/>
    <path id="Path_12577" class="st0" d="M538,9.6l-9.7,32.8h31.8v95.8H511v31.5h137.5v-31.5h-50.4V9.6H538z"/>
    <g id="Group_339" transform="translate(0 0)">
      <g>
        <g id="Group_338">
          <path id="Path_12578" class="st0" d="M423,110h33v22.5c-10.6,5.3-22.4,7.7-34.3,7.1c-33.4,0-52.3-21.5-52.3-51.6 c0-28.3,17.4-49.6,45-49.8c11.8-0.6,23.4,3.5,32.2,11.3l13.8-34.2c-14.1-7.6-30-11.4-46-11c-49.6,0-84.3,35-84.3,83.6 c0,51.2,35.4,85,90.7,85c38.6,0,63.3-14.9,72.4-22.8V78.2h-57.5L423,110z"/>
        </g>
      </g>
    </g>
  </g>
</svg>
