<svg width="61" height="61" viewBox="0 0 61 61" fill="none" xmlns="http://www.w3.org/2000/svg">
<path d="M39.0406 29.1852L27.7906 21.6852C27.5082 21.4967 27.1799 21.3885 26.8407 21.3721C26.5016 21.3556 26.1644 21.4316 25.865 21.5919C25.5657 21.7521 25.3155 21.9907 25.1411 22.282C24.9668 22.5733 24.8748 22.9066 24.875 23.2461V38.2461C24.8748 38.5856 24.9668 38.9189 25.1411 39.2102C25.3155 39.5015 25.5657 39.7401 25.865 39.9003C26.1644 40.0606 26.5016 40.1366 26.8407 40.1201C27.1799 40.1037 27.5082 39.9955 27.7906 39.807L39.0406 32.307C39.2978 32.1359 39.5087 31.9038 39.6546 31.6315C39.8005 31.3592 39.8768 31.055 39.8768 30.7461C39.8768 30.4372 39.8005 30.133 39.6546 29.8607C39.5087 29.5884 39.2978 29.3563 39.0406 29.1852ZM28.625 34.7422V26.7617L34.6203 30.7461L28.625 34.7422ZM55.4211 17.0399C55.2003 16.1758 54.7771 15.3767 54.1867 14.7084C53.5962 14.04 52.8552 13.5217 52.025 13.1961C43.9906 10.093 31.2031 10.1211 30.5 10.1211C29.7969 10.1211 17.0094 10.093 8.975 13.1961C8.14476 13.5217 7.40383 14.04 6.81335 14.7084C6.22286 15.3767 5.79975 16.1758 5.57891 17.0399C4.97188 19.3789 4.25 23.6539 4.25 30.7461C4.25 37.8383 4.97188 42.1133 5.57891 44.4523C5.79942 45.3168 6.22238 46.1164 6.81289 46.7852C7.40339 47.4539 8.14449 47.9726 8.975 48.2984C16.6719 51.268 28.7188 51.3711 30.3453 51.3711H30.6547C32.2812 51.3711 44.3352 51.268 52.025 48.2984C52.8555 47.9726 53.5966 47.4539 54.1871 46.7852C54.7776 46.1164 55.2006 45.3168 55.4211 44.4523C56.0281 42.1086 56.75 37.8383 56.75 30.7461C56.75 23.6539 56.0281 19.3789 55.4211 17.0399ZM51.7906 43.5242C51.7192 43.8118 51.5806 44.0783 51.3863 44.302C51.192 44.5256 50.9474 44.7001 50.6727 44.8109C43.2547 47.675 30.6383 47.6234 30.5164 47.6234H30.5C30.3734 47.6234 17.7664 47.6703 10.3438 44.8109C10.069 44.7001 9.82443 44.5256 9.6301 44.302C9.43577 44.0783 9.29721 43.8118 9.22578 43.5242C8.65625 41.3844 8 37.4422 8 30.7461C8 24.05 8.65625 20.1078 9.20937 17.9797C9.27948 17.6904 9.41743 17.422 9.61184 17.1966C9.80624 16.9713 10.0515 16.7954 10.3273 16.6836C17.4805 13.9203 29.4664 13.8711 30.4484 13.8711H30.5117C30.6383 13.8711 43.257 13.8289 50.668 16.6836C50.9427 16.7945 51.1873 16.9689 51.3816 17.1926C51.576 17.4162 51.7145 17.6828 51.7859 17.9703C52.3438 20.1078 53 24.05 53 30.7461C53 37.4422 52.3438 41.3844 51.7906 43.5125V43.5242Z" fill="#12285F"/>
</svg>
